<svg xmlns="http://www.w3.org/2000/svg" width="24" height="24" fill="none" viewBox="0 0 24 24"><path fill="#fff" d="M20.97 2.757a1 1 0 0 0-.728-.728c-.168-.042-4.167-1.03-8.243-1.03s-8.073.989-8.242 1.031c-.358.09-.638.37-.728.728-.042.168-1.03 4.178-1.03 9.243s.988 9.074 1.03 9.243c.09.358.37.638.728.728.168.042 4.167 1.03 8.243 1.03s8.074-.988 8.243-1.03c.358-.09.638-.37.728-.728.042-.168 1.03-4.178 1.03-9.243s-.988-9.074-1.03-9.243zM7.5 4.5a1.5 1.5 0 1 1-.001 3.001A1.5 1.5 0 0 1 7.5 4.5m0 15a1.5 1.5 0 1 1 .001-3.001A1.5 1.5 0 0 1 7.5 19.5m1.6-5.7a1 1 0 0 1-1.2 0c-.561-.421-1.1-.883-1.601-1.375A1 1 0 0 1 7.7 10.997q.385.377.8.726a14 14 0 0 0 1.733-1.735 1 1 0 1 1 1.534 1.284A16 16 0 0 1 9.1 13.799zM17 19h-5a1 1 0 0 1 0-2h5a1 1 0 0 1 0 2m0-6h-3a1 1 0 0 1 0-2h3a1 1 0 0 1 0 2m0-6h-5a1 1 0 0 1 0-2h5a1 1 0 0 1 0 2"/></svg>