<svg xmlns="http://www.w3.org/2000/svg" width="24" height="24" fill="none" viewBox="0 0 24 24"><path fill="#fff" d="M6.31 16.076h.522V1.572q-.21.045-.4.088c-1.651.376-2.897 1.756-3.175 3.515a46.4 46.4 0 0 0-.561 7.119c0 1.934.13 3.687.287 5.097a4.9 4.9 0 0 1 3.326-1.314zM6.31 18.076c-1.262 0-2.361.839-2.826 2.039.574 1.41 1.849 2.428 3.364 2.593 1.778.194 3.513.292 5.153.292 3.989 0 7.379-.588 7.521-.613a1 1 0 0 0 .799-.748c.023-.095.346-1.438.615-3.563zM12 1c4.03 0 7.526 1.187 7.673 1.238.323.112.57.383.65.716.1.423.98 4.247.98 9.339 0 1.365-.064 2.64-.159 3.783H8.833V1.224A24 24 0 0 1 12 1m4.91 3.315c-.763 0-1.42.577-1.85 1.51-.428-.933-1.086-1.51-1.85-1.51-1.355 0-2.377 1.818-2.377 4.228s1.022 4.227 2.378 4.228c.763 0 1.42-.576 1.85-1.51.429.934 1.086 1.51 1.85 1.51 1.355 0 2.377-1.818 2.377-4.228s-1.022-4.228-2.378-4.228m-3.7 1.057c.553 0 1.322 1.207 1.322 3.171s-.77 3.17-1.321 3.17c-.366 0-.828-.531-1.098-1.463a.88.88 0 1 0-.222-1.532l-.001-.175c0-1.964.77-3.17 1.32-3.17m3.7 0c.552 0 1.321 1.207 1.321 3.171s-.77 3.17-1.32 3.17c-.381 0-.865-.573-1.129-1.572a.88.88 0 1 0-.185-1.256 7 7 0 0 1-.008-.342c0-1.964.77-3.17 1.321-3.17"/></svg>