<svg xmlns="http://www.w3.org/2000/svg" width="24" height="24" fill="none" viewBox="0 0 24 24"><path fill="#fff" d="M6.428 15.028c-1.076-.083-2.014-.245-2.715-.445-1.447-.413-2.506-1.716-2.635-3.245A21 21 0 0 1 1 9.504c.003-.804.031-1.284.078-1.842.129-1.528 1.188-2.832 2.635-3.245.702-.2 1.639-.363 2.715-.445C6.566 4.481 7 6.328 7 9.5s-.435 5.022-.572 5.528M17.874 1.636a1.01 1.01 0 0 0-1.097-.628 1 1 0 0 0-.626.371c-.458.5-3.32 2.949-5.973 2.656a20 20 0 0 0-1.704-.111C8.687 4.867 9 6.713 9 9.501s-.313 4.634-.526 5.577a20 20 0 0 0 1.704-.111c2.648-.295 5.515 2.156 5.973 2.656.186.24.483.385.788.384.404.006.791-.263.936-.642.113-.289 1.109-2.96 1.126-7.868-.017-4.901-1.014-7.572-1.127-7.861m-7.235 15.382c-.346.024-3.656.01-3.656.01-1.367-.076-2.576-.23-3.449-.436.55 1.704 1.232 3.36 1.937 4.654.582 1.065 1.689 1.753 2.823 1.753 1.922.03 3.274-1.929 2.882-3.803a23 23 0 0 0-.537-2.178M20.834 6.175c.097.977.162 2.077.166 3.314a35 35 0 0 1-.167 3.335C22.265 12.426 23 11.32 23 9.499s-.734-2.927-2.166-3.325z"/></svg>