<svg xmlns="http://www.w3.org/2000/svg" width="24" height="24" fill="none" viewBox="0 0 24 24"><path fill="#fff" d="M7 15c-2.691 0-4-1.309-4-4s1.309-4 4-4 4 1.309 4 4-1.309 4-4 4m5 8H2a1 1 0 0 1-1-1c0-4.149 1.851-6 6-6s6 1.851 6 6a1 1 0 0 1-1 1M22.15 2.501a1 1 0 0 0-.629-.636C21.417 1.83 18.908 1 14 1s-7.417.83-7.521.865a1 1 0 0 0-.629.636c-.022.067-.354 1.1-.597 2.7A8 8 0 0 1 7 5c3.25 0 5.304 1.6 5.844 4.431L14 10.587l2.529-2.53c-.129.013-.259.018-.388.036a1 1 0 1 1-.281-1.981c1.054-.15 2.125-.15 3.178 0 .44.062.787.408.849.849a11.2 11.2 0 0 1 0 3.181.999.999 0 1 1-1.979-.284c.018-.129.023-.258.036-.387l-3.236 3.237a1.006 1.006 0 0 1-1.414 0l-.399-.399c-.175 1.115-.589 2.038-1.199 2.77q.665.382 1.199.898c.361.01.713.023 1.105.023 4.908 0 7.417-.83 7.521-.865a1 1 0 0 0 .629-.636c.035-.105.85-2.628.85-5.999s-.815-5.894-.85-5.999"/></svg>