<svg xmlns="http://www.w3.org/2000/svg" width="24" height="24" fill="none" viewBox="0 0 24 24"><path fill="#fff" d="M19.863 4.533a1 1 0 0 0-.611-.581c-.056-.019-1.261-.418-3.312-.693C15.395 1.74 14.098 1 12 1s-3.396.741-3.94 2.259c-2.051.275-3.256.675-3.312.693a1 1 0 0 0-.612.581C4.09 4.65 3 7.472 3 13s1.09 8.35 1.136 8.467a1 1 0 0 0 .583.57c.106.04 2.655.963 7.281.963s7.175-.923 7.28-.963a1 1 0 0 0 .583-.57C19.91 21.35 21 18.528 21 13s-1.09-8.35-1.137-8.467m-8.096 10.74A16 16 0 0 1 9.1 17.799a1 1 0 0 1-1.2 0 16 16 0 0 1-1.6-1.373 1 1 0 0 1 1.399-1.43q.386.378.801.727a14 14 0 0 0 1.734-1.735 1 1 0 0 1 1.533 1.285m0-5A16 16 0 0 1 9.1 12.799a1 1 0 0 1-1.2 0 16 16 0 0 1-1.6-1.373 1 1 0 0 1 1.399-1.43q.386.379.801.727a14 14 0 0 0 1.734-1.735 1 1 0 0 1 1.533 1.285M17 17h-3a1 1 0 1 1 0-2h3a1 1 0 1 1 0 2m0-5h-3a1 1 0 1 1 0-2h3a1 1 0 1 1 0 2"/></svg>