<svg xmlns="http://www.w3.org/2000/svg" width="24" height="24" fill="none" viewBox="0 0 24 24"><path fill="#fff" d="M16.152 17.739a.99.99 0 0 0 .651-.688c.034-.127.821-3.162.821-7.206q0-1.018-.067-2.055c-3.053-.374-5.141-1.122-5.23-1.153a1 1 0 0 1-.609-.644c-.024-.081-.583-1.969-.92-4.965a19 19 0 0 0-1.006-.027c-3.371 0-6.24.913-6.361.952a.98.98 0 0 0-.651.688c-.034.127-.82 3.162-.82 7.206 0 4.079.787 7.083.821 7.208a.99.99 0 0 0 .65.685c.12.039 2.982.952 6.362.952s6.24-.913 6.36-.952z"/><path fill="#fff" d="m17.116 5.738-4.278-4.273c.213 1.621.482 2.837.64 3.47.661.201 1.964.555 3.639.803zM21.924 7.284a1.5 1.5 0 1 0-2.99.236 34 34 0 0 1 .107 2.667c0 3.163-.411 7.131-.63 9.028-1.828.277-5.549.785-8.211.785-.823 0-1.68-.05-2.547-.148a1.5 1.5 0 0 0-.337 2.981c.979.11 1.949.167 2.884.167 3.894 0 9.576-.961 9.815-1.002a1.5 1.5 0 0 0 1.235-1.282c.032-.245.791-6.034.791-10.529 0-.947-.039-1.924-.117-2.903"/></svg>