<svg xmlns="http://www.w3.org/2000/svg" width="240" height="50" fill="none" viewBox="0 0 240 50"><path fill="#fff" fill-rule="evenodd" d="M50 25c0 13.807-11.193 25-25 25S0 38.807 0 25 11.193 0 25 0s25 11.193 25 25m-9.29 8.395c7.883-16.685-9.447-30.866-25.868-21.71C25 6.02 39.8 15.157 34.422 28.131c-4.79 11.552-25.106 5.473-17.106-8.922-6.237 7.158-1.763 19.29 10.79 18.764-13.664 2.042-17.343-9.027-16.632-13.58-3.122 20 22.089 24.13 29.237 9M18.764 24.92c-3.92-5.079 5.263-13.026 10-8.579 5.698 5.35-5.276 14.698-10 8.58" clip-rule="evenodd"/><path fill="#fff" d="M70 42.273V7.703h14.26q4.98 0 7.931 2.461 2.951 2.438 2.951 6.516 0 5.203-4.39 7.36 2.525.678 4.13 2.905 1.63 2.228 1.63 5.39 0 4.524-3.164 7.243-3.163 2.695-8.64 2.695zm6.87-5.859h7.743q2.008 0 3.423-1.289 1.417-1.29 1.417-3.375t-1.417-3.258q-1.393-1.195-3.423-1.195H76.87zm0-14.789h7.39q1.746 0 2.88-1.078 1.132-1.102 1.132-3 0-1.852-1.133-2.906-1.132-1.079-2.88-1.078h-7.39zM118.42 43q-3.896 0-7.295-1.29-3.376-1.311-5.831-3.632-2.456-2.32-3.872-5.695-1.416-3.399-1.416-7.383 0-5.367 2.431-9.492t6.587-6.305Q113.201 7 118.42 7q5.123 0 9.278 2.203 4.178 2.18 6.633 6.328 2.48 4.125 2.479 9.469 0 5.32-2.479 9.469-2.455 4.126-6.633 6.328Q123.543 43 118.42 43m-11.308-18q0 5.108 3.187 8.414 3.186 3.282 8.121 3.281 4.863 0 8.074-3.304 3.21-3.305 3.21-8.391 0-5.156-3.21-8.437-3.187-3.282-8.074-3.282-4.957 0-8.145 3.281-3.163 3.258-3.163 8.438M159.12 43q-3.896 0-7.295-1.29-3.377-1.311-5.831-3.632-2.456-2.32-3.872-5.695-1.416-3.399-1.417-7.383 0-5.367 2.432-9.492t6.587-6.305Q153.902 7 159.12 7q5.122 0 9.277 2.203 4.179 2.18 6.634 6.328 2.48 4.125 2.479 9.469 0 5.32-2.479 9.469-2.455 4.126-6.634 6.328Q164.242 43 159.12 43m-11.309-18q0 5.108 3.187 8.414 3.187 3.282 8.122 3.281 4.863 0 8.073-3.304 3.211-3.305 3.211-8.391 0-5.156-3.211-8.437-3.187-3.282-8.073-3.282-4.958 0-8.145 3.281-3.164 3.258-3.164 8.438M182.94 42.273V7.703h6.87v14.602l13.881-14.602h8.593l-13.291 13.969 14.118 20.601h-7.933l-11.024-15.445-4.344 4.547v10.898zM216.982 42.273V7.703H240v6.305h-16.148v7.57h13.291v6.305h-13.291v8.11H240v6.28z"/></svg>