<svg xmlns="http://www.w3.org/2000/svg" width="24" height="24" fill="none" viewBox="0 0 24 24"><path fill="#fff" d="M22.248 6.63c-.327-1.135-1.271-1.986-2.404-2.167-5.059-.81-10.63-.81-15.688 0-1.133.181-2.077 1.032-2.404 2.167a19.66 19.66 0 0 0 0 10.741c.327 1.135 1.271 1.986 2.404 2.167a50 50 0 0 0 7.844.607 50 50 0 0 0 7.844-.607c1.133-.181 2.077-1.032 2.404-2.167a19.66 19.66 0 0 0 0-10.741M6.064 16.033a1 1 0 1 1 0-2 1 1 0 0 1 0 2m0-6.064a1 1 0 1 1 0-2 1 1 0 0 1 0 2m9.02 3.04a4.5 4.5 0 0 1-2.074 2.074 2.27 2.27 0 0 1-2.02 0 4.5 4.5 0 0 1-2.074-2.074 2.28 2.28 0 0 1 0-2.02 4.5 4.5 0 0 1 2.074-2.074 2.28 2.28 0 0 1 2.02 0 4.5 4.5 0 0 1 2.074 2.074 2.28 2.28 0 0 1 0 2.02m2.853 3.023a1 1 0 1 1 0-2 1 1 0 0 1 0 2m0-6.064a1 1 0 1 1 0-2 1 1 0 0 1 0 2"/></svg>