<svg xmlns="http://www.w3.org/2000/svg" width="24" height="24" fill="none" viewBox="0 0 24 24"><g clip-path="url(#a)"><path fill="#fff" d="M9.5 4.5a2.5 2.5 0 1 1 5 0 2.5 2.5 0 0 1-5 0M17 12v3c0 1.474-.81 2.75-2 3.444V23a1 1 0 0 1-2 0v-4h-2v4a1 1 0 0 1-2 0v-4.556C7.81 17.75 7 16.474 7 15v-3c0-2.206 1.794-4 4-4h2c2.206 0 4 1.794 4 4M5 5a2.5 2.5 0 1 0 0-5 2.5 2.5 0 0 0 0 5m14 0a2.5 2.5 0 1 0 0-5 2.5 2.5 0 0 0 0 5m1 1h-2c-.744 0-1.432.217-2.029.572l-.09.167A6 6 0 0 1 19.001 12v3c0 .69-.128 1.365-.357 2h1.357v4a1 1 0 0 0 2 0v-4.556c1.19-.694 2-1.97 2-3.444v-3c0-2.206-1.795-4-4.001-4M5 15v-3a6 6 0 0 1 3.12-5.261 3 3 0 0 1-.09-.167A3.96 3.96 0 0 0 6.001 6h-2A4.004 4.004 0 0 0 0 10v3c0 1.474.81 2.75 2 3.444V21a1 1 0 0 0 2 0v-4h1.357A5.9 5.9 0 0 1 5 15"/></g><defs><clipPath id="a"><path fill="#fff" d="M0 0h24v24H0z"/></clipPath></defs></svg>