<svg xmlns="http://www.w3.org/2000/svg" width="24" height="24" fill="none" viewBox="0 0 24 24"><path fill="#fff" d="M22.887 11.43c-.132-.322-1.427-3.21-6.024-5.373a1.5 1.5 0 0 0-1.277 2.715c1.193.561 2.092 1.167 2.762 1.728H9.173a1.5 1.5 0 1 0 0 3h9.174c-.67.561-1.569 1.167-2.762 1.728a1.5 1.5 0 0 0 1.277 2.715c4.543-2.137 5.88-5.03 6.017-5.354.157-.37.161-.788.008-1.159"/><path fill="#fff" d="M12.338 16.177a1.49 1.49 0 0 0-1.63 1.357c-.063.689-.125 1.322-.173 1.803-.707.238-1.832.536-3.03.536-1.176 0-2.327-.308-3.05-.55-.163-1.422-.454-4.375-.454-7.322s.292-5.904.455-7.327c.715-.24 1.857-.545 3.05-.545 1.203 0 2.325.297 3.03.535.049.48.111 1.113.174 1.804a1.493 1.493 0 0 0 1.631 1.356 1.5 1.5 0 0 0 1.356-1.631 206 206 0 0 0-.272-2.755 1.5 1.5 0 0 0-.848-1.195c-.096-.046-2.379-1.115-5.071-1.115-2.644 0-4.963 1.064-5.061 1.109-.462.215-.784.65-.854 1.156-.024.175-.59 4.33-.59 8.607s.565 8.432.59 8.606c.07.509.396.947.864 1.16.099.045 2.455 1.105 5.051 1.105 2.686 0 4.974-1.07 5.07-1.115.472-.224.794-.677.85-1.197 0 0 .132-1.244.271-2.753a1.5 1.5 0 0 0-1.357-1.63z"/></svg>