<svg xmlns="http://www.w3.org/2000/svg" width="24" height="24" fill="none" viewBox="0 0 24 24"><path fill="#fff" d="m22.971 8.081-1.075-3.757A4.61 4.61 0 0 0 17.486 1h-.9v3.667c-.006 1.199-1.83 1.198-1.835 0V1H9.248v3.667c-.005 1.199-1.829 1.198-1.834 0V1h-.902a4.61 4.61 0 0 0-4.41 3.324L1.03 8.08c-.148.977.288 1.96.881 2.652v8.6A3.67 3.67 0 0 0 5.58 23h5.502a3.67 3.67 0 0 0 3.67-3.667V11.49c.346-.202.654-.456.916-.757A3.65 3.65 0 0 0 18.42 12h.917c.319 0 .622-.053.918-.13v10.213c.005 1.2 1.83 1.198 1.834 0v-11.35c.594-.691 1.03-1.674.882-2.652m-10.054 8.502H3.745V11.87c.295.077.599.13.917.13h.917c1.1 0 2.079-.497 2.752-1.267A3.65 3.65 0 0 0 11.083 12h1.834z"/></svg>