<svg xmlns="http://www.w3.org/2000/svg" width="24" height="24" fill="none" viewBox="0 0 24 24"><path fill="#fff" d="M21.571 16.064c.12-1.208.205-2.582.205-4.064 0-5.157-1.001-8.95-1.044-9.109a1 1 0 0 0-.66-.693C19.92 2.149 16.291 1 12.001 1S4.082 2.149 3.93 2.198a1 1 0 0 0-.662.696C3.226 3.055 2.225 6.886 2.225 12c0 1.486.083 2.859.203 4.064zM13 18.064v.777a1 1 0 1 1-2 0v-.777H2.674c.272 1.827.571 2.959.594 3.045.088.328.337.589.66.693C4.08 21.851 7.709 23 11.999 23s7.918-1.149 8.07-1.198a1 1 0 0 0 .662-.696c.022-.086.319-1.222.59-3.042z"/></svg>