<svg xmlns="http://www.w3.org/2000/svg" width="24" height="24" fill="none" viewBox="0 0 24 24"><g clip-path="url(#a)"><path fill="#fff" d="M12 5c-3.862 0-7 3.138-7 7s3.138 7 7 7 7-3.138 7-7-3.138-7-7-7m3.945 6.255-1.656 1.351.687 2.083a.69.69 0 0 1-.237.771.7.7 0 0 1-.809.031l-1.923-1.251-1.892 1.267a.7.7 0 0 1-.389.114v-.008a.694.694 0 0 1-.664-.908l.656-2.106-1.663-1.351a.7.7 0 0 1-.206-.771.7.7 0 0 1 .656-.458h2.098l.74-1.992a.7.7 0 0 1 1.312 0l.74 1.992h2.098a.7.7 0 0 1 .656.458.71.71 0 0 1-.206.778zM12 0C5.383 0 0 5.383 0 12s5.383 12 12 12 12-5.383 12-12S18.617 0 12 0m0 21c-4.962 0-9-4.037-9-9s4.038-9 9-9 9 4.037 9 9-4.038 9-9 9"/></g><defs><clipPath id="a"><path fill="#fff" d="M0 0h24v24H0z"/></clipPath></defs></svg>