<svg xmlns="http://www.w3.org/2000/svg" width="24" height="24" fill="none" viewBox="0 0 24 24"><path fill="#fff" d="M16.499 22.486c-1.292.34-2.78.514-4.499.514s-3.207-.174-4.499-.514C7.504 19.133 8.641 18 12 18s4.496 1.134 4.499 4.486M12 8c-1.589 0-2 .411-2 2s.411 2 2 2 2-.411 2-2-.411-2-2-2m11 4c0 5.028-1.41 8.165-4.522 9.747C18.258 17.782 16.235 16 12 16s-6.258 1.782-6.478 5.747C2.411 20.165 1 17.027 1 12 1 4.29 4.29 1 12 1s11 3.29 11 11m-7-2c0-2.691-1.309-4-4-4s-4 1.309-4 4 1.309 4 4 4 4-1.309 4-4"/></svg>